<mxfile host="app.diagrams.net" modified="2021-02-08T09:32:38.421Z" agent="5.0 (Windows NT 10.0; WOW64) AppleWebKit/537.36 (KHTML, like Gecko) Chrome/86.0.4240.198 Safari/537.36" etag="eqH6DlqKTKbPSYrXoSZD" version="14.2.9" type="github">
  <diagram id="Lnbd4MurGTlbG9hCKr5g" name="Page-1">
    <mxGraphModel dx="981" dy="514" grid="1" gridSize="10" guides="1" tooltips="1" connect="1" arrows="1" fold="1" page="1" pageScale="1" pageWidth="583" pageHeight="413" math="0" shadow="0">
      <root>
        <mxCell id="0" />
        <mxCell id="1" parent="0" />
        <mxCell id="hXbYB2fhWj5i4QX0Ryl8-4" value="" style="rounded=1;whiteSpace=wrap;html=1;shadow=0;labelBackgroundColor=none;sketch=0;strokeWidth=2;fontFamily=Cambria Math;fontSize=15;fontColor=#333333;opacity=80;align=left;rotation=90;fillColor=#f5f5f5;strokeColor=none;" parent="1" vertex="1">
          <mxGeometry x="188" y="323" width="331.1" height="83.95" as="geometry" />
        </mxCell>
        <mxCell id="hXbYB2fhWj5i4QX0Ryl8-6" value="" style="rounded=1;whiteSpace=wrap;html=1;shadow=0;labelBackgroundColor=none;sketch=0;strokeWidth=2;fontFamily=Cambria Math;fontSize=15;fontColor=#333333;opacity=80;align=left;rotation=90;fillColor=#f5f5f5;strokeColor=none;" parent="1" vertex="1">
          <mxGeometry x="499.35" y="317" width="331.1" height="83.95" as="geometry" />
        </mxCell>
        <mxCell id="YDz63RkTL5ti8RZhgOBa-62" value="" style="shape=singleArrow;direction=north;whiteSpace=wrap;html=1;labelBackgroundColor=#FFD966;sketch=0;strokeColor=#FFFFFF;fontColor=#FFFFFF;rotation=128.5;arrowWidth=0.4582068513227375;arrowSize=0.05719490939199737;fillColor=#B3B3B3;shadow=0;expand=1;opacity=80;" parent="1" vertex="1">
          <mxGeometry x="431.08" y="241.08" width="12.9" height="132.98" as="geometry" />
        </mxCell>
        <mxCell id="YDz63RkTL5ti8RZhgOBa-74" value="" style="shape=singleArrow;direction=north;whiteSpace=wrap;html=1;labelBackgroundColor=#FFD966;sketch=0;strokeColor=#FFFFFF;fontColor=#FFFFFF;rotation=90;arrowWidth=0.43097764732445903;arrowSize=0.09195182425595691;fillColor=#B3B3B3;shadow=0;expand=1;opacity=80;" parent="1" vertex="1">
          <mxGeometry x="428.88" y="312.87" width="12.9" height="99.12" as="geometry" />
        </mxCell>
        <mxCell id="hXbYB2fhWj5i4QX0Ryl8-1" value="" style="shape=singleArrow;direction=north;whiteSpace=wrap;html=1;labelBackgroundColor=#FFD966;sketch=0;strokeColor=#FFFFFF;fontColor=#FFFFFF;rotation=51.1;arrowWidth=0.4582068513227375;arrowSize=0.05719490939199737;fillColor=#B3B3B3;shadow=0;expand=1;opacity=80;" parent="1" vertex="1">
          <mxGeometry x="432.41" y="356.61" width="12.9" height="134.11" as="geometry" />
        </mxCell>
        <mxCell id="hXbYB2fhWj5i4QX0Ryl8-3" value="&lt;span style=&quot;font-size: 15px&quot;&gt;&lt;font style=&quot;font-size: 15px&quot;&gt;Gift&lt;/font&gt;&lt;/span&gt;" style="text;html=1;strokeColor=none;align=center;verticalAlign=middle;whiteSpace=wrap;rounded=0;shadow=0;labelBackgroundColor=none;sketch=0;labelBorderColor=none;fontSize=15;fontStyle=1;fontFamily=Helvetica;" parent="1" vertex="1">
          <mxGeometry x="415.00000000000006" y="340" width="40" height="20" as="geometry" />
        </mxCell>
        <mxCell id="YDz63RkTL5ti8RZhgOBa-73" value="&lt;span style=&quot;font-size: 15px&quot;&gt;&lt;font style=&quot;font-size: 15px&quot;&gt;Invitation&lt;/font&gt;&lt;/span&gt;" style="text;html=1;strokeColor=none;align=center;verticalAlign=middle;whiteSpace=wrap;rounded=0;shadow=0;labelBackgroundColor=none;sketch=0;labelBorderColor=none;fontSize=15;fontStyle=1;fontFamily=Helvetica;" parent="1" vertex="1">
          <mxGeometry x="433" y="279" width="40" height="20" as="geometry" />
        </mxCell>
        <mxCell id="hXbYB2fhWj5i4QX0Ryl8-8" value="" style="shape=singleArrow;direction=north;whiteSpace=wrap;html=1;labelBackgroundColor=#FFD966;sketch=0;strokeColor=#FFFFFF;fontColor=#FFFFFF;rotation=51.1;arrowWidth=0.4582068513227375;arrowSize=0.05719490939199737;fillColor=#B3B3B3;shadow=0;expand=1;opacity=80;" parent="1" vertex="1">
          <mxGeometry x="432.41" y="356.61" width="12.9" height="134.11" as="geometry" />
        </mxCell>
        <mxCell id="hXbYB2fhWj5i4QX0Ryl8-9" value="" style="shape=singleArrow;direction=north;whiteSpace=wrap;html=1;labelBackgroundColor=#FFD966;sketch=0;strokeColor=#FFFFFF;fontColor=#FFFFFF;rotation=128.5;arrowWidth=0.4582068513227375;arrowSize=0.05719490939199737;fillColor=#B3B3B3;shadow=0;expand=1;opacity=80;" parent="1" vertex="1">
          <mxGeometry x="431.08" y="241.08" width="12.9" height="132.98" as="geometry" />
        </mxCell>
        <mxCell id="YDz63RkTL5ti8RZhgOBa-14" value="" style="shape=singleArrow;direction=north;whiteSpace=wrap;html=1;labelBackgroundColor=#FFD966;sketch=0;strokeColor=#FFFFFF;fontColor=#FFFFFF;rotation=51.4;arrowWidth=0.4582068513227375;arrowSize=0.05719490939199737;fillColor=#B3B3B3;shadow=0;expand=1;opacity=80;" parent="1" vertex="1">
          <mxGeometry x="579.1" y="239.47" width="12.9" height="129.65" as="geometry" />
        </mxCell>
        <mxCell id="YDz63RkTL5ti8RZhgOBa-21" value="" style="group" parent="1" vertex="1" connectable="0">
          <mxGeometry x="490" y="340" width="60" height="70" as="geometry" />
        </mxCell>
        <mxCell id="YDz63RkTL5ti8RZhgOBa-3" value="" style="ellipse;whiteSpace=wrap;html=1;aspect=fixed;strokeColor=#FFB570;fillColor=none;strokeWidth=2;" parent="YDz63RkTL5ti8RZhgOBa-21" vertex="1">
          <mxGeometry width="47.94520547945205" height="47.94520547945205" as="geometry" />
        </mxCell>
        <mxCell id="YDz63RkTL5ti8RZhgOBa-18" value="" style="shape=image;verticalLabelPosition=bottom;labelBackgroundColor=#ffffff;verticalAlign=top;aspect=fixed;imageAspect=0;image=data:image/svg+xml,PHN2ZyB4bWxucz0iaHR0cDovL3d3dy53My5vcmcvMjAwMC9zdmciIHhtbG5zOnhsaW5rPSJodHRwOi8vd3d3LnczLm9yZy8xOTk5L3hsaW5rIiB0PSIxNjEyNzcxOTUzMTgxIiBjbGFzcz0iaWNvbiIgdmlld0JveD0iMTIzLjI2MjgwOTc1MzQxNzk3IDkwLjEyNSA3NzcuNDc0NjA5Mzc1IDg0My43NDk0NTA2ODM1OTM4IiB2ZXJzaW9uPSIxLjEiIHAtaWQ9IjEwNDkxIiB3aWR0aD0iNzc3LjQ3NDYwOTM3NSIgaGVpZ2h0PSI4NDMuNzQ5NDUwNjgzNTkzOCI+PGRlZnM+PHN0eWxlIHR5cGU9InRleHQvY3NzIi8+PC9kZWZzPjxwYXRoIGQ9Ik02MTkuNTEzNDM3NSA0ODcuODc4MTI1YzY5Ljk5Mzc1LTM3LjA3MzQzNzUgMTA4LjQzMTI1LTEwNi4yMjI1IDEwOC40MzEyNS0xODYuMTVDNzI4LjAxMDMxMjUgMTg1LjA1MDYyNSA2MzEuMDcxODc1IDkwLjEyNSA1MTEuOTI1OTM3NSA5MC4xMjVjLTExOS4yMDg3NSAwLTIxNi4xNDcxODc1IDk0LjkyNTYyNS0yMTYuMTQ3MTg3NSAyMTEuNjAzMTI1IDAgNzkuOTkxMjUgMzUuMDYxNTYyNSAxNDkuMDc2NTYyNSAxMDUuMDU0Mzc1IDE4Ni4xNUMyNDEuODIyODEyNSA1MzIuNDIwNjI1IDEyMy4yNjI4MTI1IDY4Ni44MjIxODc1IDEyMy4yNjI4MTI1IDg1OS4yMDc4MTI1YzAgMzUuNzc1IDIuNTMxMjUgNzMuODg5MDYyNSA4MC41MTE1NjI1IDc0LjQ3NDA2MjUgNjkuNjAzNzUgMC41MTg0Mzc1IDQ3Mi43NDY1NjI1LTAuMTk1OTM3NSA2MTYuNTYzNzUgMCA2My44MjUgMC4wNjM3NSA4MC4wNTY4NzUtMzcuMTQgODAuMzgyMTg3NS03NC40NzQwNjI1IDEuNjg3NS0xNzAuODI3NS0xMjEuOTM1OTM3NS0zMjYuNzg3MTg3NS0yODEuMjA2ODc1LTM3MS4zMjc4MTI1eiIgcC1pZD0iMTA0OTIiIGZpbGw9IiNGRkI1NzAiLz48L3N2Zz4=;" parent="YDz63RkTL5ti8RZhgOBa-21" vertex="1">
          <mxGeometry x="8.300000000000011" y="4.5547945205479445" width="32.01780821917808" height="34.76027397260274" as="geometry" />
        </mxCell>
        <mxCell id="YDz63RkTL5ti8RZhgOBa-60" value="&lt;font face=&quot;Helvetica&quot; style=&quot;font-style: normal&quot;&gt;user&lt;/font&gt; &lt;b&gt;u&lt;/b&gt;" style="text;html=1;strokeColor=none;align=left;verticalAlign=middle;whiteSpace=wrap;rounded=0;shadow=0;labelBackgroundColor=none;sketch=0;labelBorderColor=none;fontSize=15;fontStyle=2;fontFamily=Cambria;fontSource=https%3A%2F%2Ffonts.googleapis.com%2Fcss%3Ffamily%3DCambria;" parent="YDz63RkTL5ti8RZhgOBa-21" vertex="1">
          <mxGeometry x="-2.5" y="57.534246575342465" width="55" height="19.17808219178082" as="geometry" />
        </mxCell>
        <mxCell id="YDz63RkTL5ti8RZhgOBa-28" value="&lt;span style=&quot;font-size: 15px;&quot;&gt;&lt;font style=&quot;font-size: 15px;&quot;&gt;Like&lt;/font&gt;&lt;/span&gt;" style="text;html=1;strokeColor=none;align=center;verticalAlign=middle;whiteSpace=wrap;rounded=0;shadow=0;labelBackgroundColor=none;sketch=0;labelBorderColor=none;fontSize=15;fontStyle=1;fontFamily=Helvetica;" parent="1" vertex="1">
          <mxGeometry x="564" y="280" width="40" height="20" as="geometry" />
        </mxCell>
        <mxCell id="YDz63RkTL5ti8RZhgOBa-46" style="edgeStyle=none;rounded=0;orthogonalLoop=1;jettySize=auto;html=1;exitX=1;exitY=0.5;exitDx=0;exitDy=0;exitPerimeter=0;fontColor=#FFFFFF;" parent="1" edge="1">
          <mxGeometry relative="1" as="geometry">
            <mxPoint x="635.0033199197995" y="488.24407110906157" as="sourcePoint" />
            <mxPoint x="635.0033199197995" y="488.24407110906157" as="targetPoint" />
          </mxGeometry>
        </mxCell>
        <mxCell id="YDz63RkTL5ti8RZhgOBa-48" value="" style="group" parent="1" vertex="1" connectable="0">
          <mxGeometry x="640" y="224" width="50" height="50" as="geometry" />
        </mxCell>
        <mxCell id="YDz63RkTL5ti8RZhgOBa-26" value="" style="shape=image;verticalLabelPosition=bottom;verticalAlign=top;aspect=fixed;imageAspect=0;image=data:image/svg+xml,PHN2ZyB4bWxucz0iaHR0cDovL3d3dy53My5vcmcvMjAwMC9zdmciIHhtbG5zOnhsaW5rPSJodHRwOi8vd3d3LnczLm9yZy8xOTk5L3hsaW5rIiB0PSIxNjEyNzcxOTUzMTgxIiBjbGFzcz0iaWNvbiIgdmlld0JveD0iMTIzLjI2MjgwOTc1MzQxNzk3IDkwLjEyNSA3NzcuNDc0NjA5Mzc1IDg0My43NDk0NTA2ODM1OTM4IiB2ZXJzaW9uPSIxLjEiIHAtaWQ9IjEwNDkxIiB3aWR0aD0iNzc3LjQ3NDYwOTM3NSIgaGVpZ2h0PSI4NDMuNzQ5NDUwNjgzNTkzOCI+PGRlZnM+PHN0eWxlIHR5cGU9InRleHQvY3NzIi8+PC9kZWZzPjxwYXRoIGQ9Ik02MTkuNTEzNDM3NSA0ODcuODc4MTI1YzY5Ljk5Mzc1LTM3LjA3MzQzNzUgMTA4LjQzMTI1LTEwNi4yMjI1IDEwOC40MzEyNS0xODYuMTVDNzI4LjAxMDMxMjUgMTg1LjA1MDYyNSA2MzEuMDcxODc1IDkwLjEyNSA1MTEuOTI1OTM3NSA5MC4xMjVjLTExOS4yMDg3NSAwLTIxNi4xNDcxODc1IDk0LjkyNTYyNS0yMTYuMTQ3MTg3NSAyMTEuNjAzMTI1IDAgNzkuOTkxMjUgMzUuMDYxNTYyNSAxNDkuMDc2NTYyNSAxMDUuMDU0Mzc1IDE4Ni4xNUMyNDEuODIyODEyNSA1MzIuNDIwNjI1IDEyMy4yNjI4MTI1IDY4Ni44MjIxODc1IDEyMy4yNjI4MTI1IDg1OS4yMDc4MTI1YzAgMzUuNzc1IDIuNTMxMjUgNzMuODg5MDYyNSA4MC41MTE1NjI1IDc0LjQ3NDA2MjUgNjkuNjAzNzUgMC41MTg0Mzc1IDQ3Mi43NDY1NjI1LTAuMTk1OTM3NSA2MTYuNTYzNzUgMCA2My44MjUgMC4wNjM3NSA4MC4wNTY4NzUtMzcuMTQgODAuMzgyMTg3NS03NC40NzQwNjI1IDEuNjg3NS0xNzAuODI3NS0xMjEuOTM1OTM3NS0zMjYuNzg3MTg3NS0yODEuMjA2ODc1LTM3MS4zMjc4MTI1eiIgcC1pZD0iMTA0OTIiIGZpbGw9IiM3RUE2RTAiLz48L3N2Zz4=;strokeColor=#000000;fillColor=#ffffff;labelBackgroundColor=#ffffff;" parent="YDz63RkTL5ti8RZhgOBa-48" vertex="1">
          <mxGeometry x="8.409999999999968" y="5" width="33.17" height="36" as="geometry" />
        </mxCell>
        <mxCell id="YDz63RkTL5ti8RZhgOBa-24" value="" style="ellipse;whiteSpace=wrap;html=1;aspect=fixed;fillColor=none;strokeWidth=2;strokeColor=#7EA6E0;" parent="YDz63RkTL5ti8RZhgOBa-48" vertex="1">
          <mxGeometry width="50" height="50" as="geometry" />
        </mxCell>
        <mxCell id="YDz63RkTL5ti8RZhgOBa-49" value="" style="shape=singleArrow;direction=north;whiteSpace=wrap;html=1;labelBackgroundColor=#FFD966;sketch=0;strokeColor=#FFFFFF;fontColor=#FFFFFF;rotation=90;arrowWidth=0.43097764732445903;arrowSize=0.09195182425595691;fillColor=#B3B3B3;shadow=0;expand=1;opacity=80;" parent="1" vertex="1">
          <mxGeometry x="584" y="317" width="12.9" height="90.88" as="geometry" />
        </mxCell>
        <mxCell id="YDz63RkTL5ti8RZhgOBa-50" value="" style="shape=singleArrow;direction=north;whiteSpace=wrap;html=1;labelBackgroundColor=#FFD966;sketch=0;strokeColor=#FFFFFF;fontColor=#FFFFFF;rotation=131.8;arrowWidth=0.4582068513227375;arrowSize=0.05719490939199737;fillColor=#B3B3B3;shadow=0;expand=1;opacity=80;" parent="1" vertex="1">
          <mxGeometry x="580.51" y="360.67" width="12.9" height="129.88" as="geometry" />
        </mxCell>
        <mxCell id="YDz63RkTL5ti8RZhgOBa-54" value="" style="group" parent="1" vertex="1" connectable="0">
          <mxGeometry x="639.9" y="460" width="50" height="50" as="geometry" />
        </mxCell>
        <mxCell id="YDz63RkTL5ti8RZhgOBa-55" value="" style="shape=image;verticalLabelPosition=bottom;verticalAlign=top;aspect=fixed;imageAspect=0;image=data:image/svg+xml,PHN2ZyB4bWxucz0iaHR0cDovL3d3dy53My5vcmcvMjAwMC9zdmciIHhtbG5zOnhsaW5rPSJodHRwOi8vd3d3LnczLm9yZy8xOTk5L3hsaW5rIiB0PSIxNjEyNzcxOTUzMTgxIiBjbGFzcz0iaWNvbiIgdmlld0JveD0iMTIzLjI2MjgwOTc1MzQxNzk3IDkwLjEyNSA3NzcuNDc0NjA5Mzc1IDg0My43NDk0NTA2ODM1OTM4IiB2ZXJzaW9uPSIxLjEiIHAtaWQ9IjEwNDkxIiB3aWR0aD0iNzc3LjQ3NDYwOTM3NSIgaGVpZ2h0PSI4NDMuNzQ5NDUwNjgzNTkzOCI+PGRlZnM+PHN0eWxlIHR5cGU9InRleHQvY3NzIi8+PC9kZWZzPjxwYXRoIGQ9Ik02MTkuNTEzNDM3NSA0ODcuODc4MTI1YzY5Ljk5Mzc1LTM3LjA3MzQzNzUgMTA4LjQzMTI1LTEwNi4yMjI1IDEwOC40MzEyNS0xODYuMTVDNzI4LjAxMDMxMjUgMTg1LjA1MDYyNSA2MzEuMDcxODc1IDkwLjEyNSA1MTEuOTI1OTM3NSA5MC4xMjVjLTExOS4yMDg3NSAwLTIxNi4xNDcxODc1IDk0LjkyNTYyNS0yMTYuMTQ3MTg3NSAyMTEuNjAzMTI1IDAgNzkuOTkxMjUgMzUuMDYxNTYyNSAxNDkuMDc2NTYyNSAxMDUuMDU0Mzc1IDE4Ni4xNUMyNDEuODIyODEyNSA1MzIuNDIwNjI1IDEyMy4yNjI4MTI1IDY4Ni44MjIxODc1IDEyMy4yNjI4MTI1IDg1OS4yMDc4MTI1YzAgMzUuNzc1IDIuNTMxMjUgNzMuODg5MDYyNSA4MC41MTE1NjI1IDc0LjQ3NDA2MjUgNjkuNjAzNzUgMC41MTg0Mzc1IDQ3Mi43NDY1NjI1LTAuMTk1OTM3NSA2MTYuNTYzNzUgMCA2My44MjUgMC4wNjM3NSA4MC4wNTY4NzUtMzcuMTQgODAuMzgyMTg3NS03NC40NzQwNjI1IDEuNjg3NS0xNzAuODI3NS0xMjEuOTM1OTM3NS0zMjYuNzg3MTg3NS0yODEuMjA2ODc1LTM3MS4zMjc4MTI1eiIgcC1pZD0iMTA0OTIiIGZpbGw9IiM3RUE2RTAiLz48L3N2Zz4=;strokeColor=#000000;fillColor=#ffffff;labelBackgroundColor=#ffffff;" parent="YDz63RkTL5ti8RZhgOBa-54" vertex="1">
          <mxGeometry x="8.409999999999968" y="5" width="33.17" height="36" as="geometry" />
        </mxCell>
        <mxCell id="YDz63RkTL5ti8RZhgOBa-56" value="" style="ellipse;whiteSpace=wrap;html=1;aspect=fixed;fillColor=none;strokeWidth=2;strokeColor=#7EA6E0;" parent="YDz63RkTL5ti8RZhgOBa-54" vertex="1">
          <mxGeometry width="50" height="50" as="geometry" />
        </mxCell>
        <mxCell id="YDz63RkTL5ti8RZhgOBa-57" value="" style="group" parent="1" vertex="1" connectable="0">
          <mxGeometry x="640" y="342" width="50" height="50" as="geometry" />
        </mxCell>
        <mxCell id="YDz63RkTL5ti8RZhgOBa-58" value="" style="shape=image;verticalLabelPosition=bottom;verticalAlign=top;aspect=fixed;imageAspect=0;image=data:image/svg+xml,PHN2ZyB4bWxucz0iaHR0cDovL3d3dy53My5vcmcvMjAwMC9zdmciIHhtbG5zOnhsaW5rPSJodHRwOi8vd3d3LnczLm9yZy8xOTk5L3hsaW5rIiB0PSIxNjEyNzcxOTUzMTgxIiBjbGFzcz0iaWNvbiIgdmlld0JveD0iMTIzLjI2MjgwOTc1MzQxNzk3IDkwLjEyNSA3NzcuNDc0NjA5Mzc1IDg0My43NDk0NTA2ODM1OTM4IiB2ZXJzaW9uPSIxLjEiIHAtaWQ9IjEwNDkxIiB3aWR0aD0iNzc3LjQ3NDYwOTM3NSIgaGVpZ2h0PSI4NDMuNzQ5NDUwNjgzNTkzOCI+PGRlZnM+PHN0eWxlIHR5cGU9InRleHQvY3NzIi8+PC9kZWZzPjxwYXRoIGQ9Ik02MTkuNTEzNDM3NSA0ODcuODc4MTI1YzY5Ljk5Mzc1LTM3LjA3MzQzNzUgMTA4LjQzMTI1LTEwNi4yMjI1IDEwOC40MzEyNS0xODYuMTVDNzI4LjAxMDMxMjUgMTg1LjA1MDYyNSA2MzEuMDcxODc1IDkwLjEyNSA1MTEuOTI1OTM3NSA5MC4xMjVjLTExOS4yMDg3NSAwLTIxNi4xNDcxODc1IDk0LjkyNTYyNS0yMTYuMTQ3MTg3NSAyMTEuNjAzMTI1IDAgNzkuOTkxMjUgMzUuMDYxNTYyNSAxNDkuMDc2NTYyNSAxMDUuMDU0Mzc1IDE4Ni4xNUMyNDEuODIyODEyNSA1MzIuNDIwNjI1IDEyMy4yNjI4MTI1IDY4Ni44MjIxODc1IDEyMy4yNjI4MTI1IDg1OS4yMDc4MTI1YzAgMzUuNzc1IDIuNTMxMjUgNzMuODg5MDYyNSA4MC41MTE1NjI1IDc0LjQ3NDA2MjUgNjkuNjAzNzUgMC41MTg0Mzc1IDQ3Mi43NDY1NjI1LTAuMTk1OTM3NSA2MTYuNTYzNzUgMCA2My44MjUgMC4wNjM3NSA4MC4wNTY4NzUtMzcuMTQgODAuMzgyMTg3NS03NC40NzQwNjI1IDEuNjg3NS0xNzAuODI3NS0xMjEuOTM1OTM3NS0zMjYuNzg3MTg3NS0yODEuMjA2ODc1LTM3MS4zMjc4MTI1eiIgcC1pZD0iMTA0OTIiIGZpbGw9IiM3RUE2RTAiLz48L3N2Zz4=;strokeColor=#000000;fillColor=#ffffff;labelBackgroundColor=#ffffff;" parent="YDz63RkTL5ti8RZhgOBa-57" vertex="1">
          <mxGeometry x="8.409999999999968" y="5" width="33.17" height="36" as="geometry" />
        </mxCell>
        <mxCell id="YDz63RkTL5ti8RZhgOBa-59" value="" style="ellipse;whiteSpace=wrap;html=1;aspect=fixed;fillColor=none;strokeWidth=2;strokeColor=#7EA6E0;" parent="YDz63RkTL5ti8RZhgOBa-57" vertex="1">
          <mxGeometry width="50" height="50" as="geometry" />
        </mxCell>
        <mxCell id="YDz63RkTL5ti8RZhgOBa-63" style="edgeStyle=none;rounded=0;orthogonalLoop=1;jettySize=auto;html=1;exitX=1;exitY=0.5;exitDx=0;exitDy=0;exitPerimeter=0;fontColor=#FFFFFF;" parent="1" edge="1">
          <mxGeometry relative="1" as="geometry">
            <mxPoint x="327.00331991979965" y="486.2440711090617" as="sourcePoint" />
            <mxPoint x="327.00331991979965" y="486.2440711090617" as="targetPoint" />
          </mxGeometry>
        </mxCell>
        <mxCell id="YDz63RkTL5ti8RZhgOBa-64" value="" style="group" parent="1" vertex="1" connectable="0">
          <mxGeometry x="332" y="222" width="50" height="50" as="geometry" />
        </mxCell>
        <mxCell id="YDz63RkTL5ti8RZhgOBa-65" value="" style="shape=image;verticalLabelPosition=bottom;verticalAlign=top;aspect=fixed;imageAspect=0;image=data:image/svg+xml,PHN2ZyB4bWxucz0iaHR0cDovL3d3dy53My5vcmcvMjAwMC9zdmciIHhtbG5zOnhsaW5rPSJodHRwOi8vd3d3LnczLm9yZy8xOTk5L3hsaW5rIiB0PSIxNjEyNzcxOTUzMTgxIiBjbGFzcz0iaWNvbiIgdmlld0JveD0iMTIzLjI2MjgwOTc1MzQxNzk3IDkwLjEyNSA3NzcuNDc0NjA5Mzc1IDg0My43NDk0NTA2ODM1OTM4IiB2ZXJzaW9uPSIxLjEiIHAtaWQ9IjEwNDkxIiB3aWR0aD0iNzc3LjQ3NDYwOTM3NSIgaGVpZ2h0PSI4NDMuNzQ5NDUwNjgzNTkzOCI+PGRlZnM+PHN0eWxlIHR5cGU9InRleHQvY3NzIi8+PC9kZWZzPjxwYXRoIGQ9Ik02MTkuNTEzNDM3NSA0ODcuODc4MTI1YzY5Ljk5Mzc1LTM3LjA3MzQzNzUgMTA4LjQzMTI1LTEwNi4yMjI1IDEwOC40MzEyNS0xODYuMTVDNzI4LjAxMDMxMjUgMTg1LjA1MDYyNSA2MzEuMDcxODc1IDkwLjEyNSA1MTEuOTI1OTM3NSA5MC4xMjVjLTExOS4yMDg3NSAwLTIxNi4xNDcxODc1IDk0LjkyNTYyNS0yMTYuMTQ3MTg3NSAyMTEuNjAzMTI1IDAgNzkuOTkxMjUgMzUuMDYxNTYyNSAxNDkuMDc2NTYyNSAxMDUuMDU0Mzc1IDE4Ni4xNUMyNDEuODIyODEyNSA1MzIuNDIwNjI1IDEyMy4yNjI4MTI1IDY4Ni44MjIxODc1IDEyMy4yNjI4MTI1IDg1OS4yMDc4MTI1YzAgMzUuNzc1IDIuNTMxMjUgNzMuODg5MDYyNSA4MC41MTE1NjI1IDc0LjQ3NDA2MjUgNjkuNjAzNzUgMC41MTg0Mzc1IDQ3Mi43NDY1NjI1LTAuMTk1OTM3NSA2MTYuNTYzNzUgMCA2My44MjUgMC4wNjM3NSA4MC4wNTY4NzUtMzcuMTQgODAuMzgyMTg3NS03NC40NzQwNjI1IDEuNjg3NS0xNzAuODI3NS0xMjEuOTM1OTM3NS0zMjYuNzg3MTg3NS0yODEuMjA2ODc1LTM3MS4zMjc4MTI1eiIgcC1pZD0iMTA0OTIiIGZpbGw9IiM3RUE2RTAiLz48L3N2Zz4=;strokeColor=#000000;fillColor=#ffffff;labelBackgroundColor=#ffffff;" parent="YDz63RkTL5ti8RZhgOBa-64" vertex="1">
          <mxGeometry x="8.409999999999968" y="5" width="33.17" height="36" as="geometry" />
        </mxCell>
        <mxCell id="YDz63RkTL5ti8RZhgOBa-66" value="" style="ellipse;whiteSpace=wrap;html=1;aspect=fixed;fillColor=none;strokeWidth=2;strokeColor=#7EA6E0;" parent="YDz63RkTL5ti8RZhgOBa-64" vertex="1">
          <mxGeometry width="50" height="50" as="geometry" />
        </mxCell>
        <mxCell id="YDz63RkTL5ti8RZhgOBa-67" value="" style="group" parent="1" vertex="1" connectable="0">
          <mxGeometry x="331.9" y="458" width="50" height="50" as="geometry" />
        </mxCell>
        <mxCell id="YDz63RkTL5ti8RZhgOBa-68" value="" style="shape=image;verticalLabelPosition=bottom;verticalAlign=top;aspect=fixed;imageAspect=0;image=data:image/svg+xml,PHN2ZyB4bWxucz0iaHR0cDovL3d3dy53My5vcmcvMjAwMC9zdmciIHhtbG5zOnhsaW5rPSJodHRwOi8vd3d3LnczLm9yZy8xOTk5L3hsaW5rIiB0PSIxNjEyNzcxOTUzMTgxIiBjbGFzcz0iaWNvbiIgdmlld0JveD0iMTIzLjI2MjgwOTc1MzQxNzk3IDkwLjEyNSA3NzcuNDc0NjA5Mzc1IDg0My43NDk0NTA2ODM1OTM4IiB2ZXJzaW9uPSIxLjEiIHAtaWQ9IjEwNDkxIiB3aWR0aD0iNzc3LjQ3NDYwOTM3NSIgaGVpZ2h0PSI4NDMuNzQ5NDUwNjgzNTkzOCI+PGRlZnM+PHN0eWxlIHR5cGU9InRleHQvY3NzIi8+PC9kZWZzPjxwYXRoIGQ9Ik02MTkuNTEzNDM3NSA0ODcuODc4MTI1YzY5Ljk5Mzc1LTM3LjA3MzQzNzUgMTA4LjQzMTI1LTEwNi4yMjI1IDEwOC40MzEyNS0xODYuMTVDNzI4LjAxMDMxMjUgMTg1LjA1MDYyNSA2MzEuMDcxODc1IDkwLjEyNSA1MTEuOTI1OTM3NSA5MC4xMjVjLTExOS4yMDg3NSAwLTIxNi4xNDcxODc1IDk0LjkyNTYyNS0yMTYuMTQ3MTg3NSAyMTEuNjAzMTI1IDAgNzkuOTkxMjUgMzUuMDYxNTYyNSAxNDkuMDc2NTYyNSAxMDUuMDU0Mzc1IDE4Ni4xNUMyNDEuODIyODEyNSA1MzIuNDIwNjI1IDEyMy4yNjI4MTI1IDY4Ni44MjIxODc1IDEyMy4yNjI4MTI1IDg1OS4yMDc4MTI1YzAgMzUuNzc1IDIuNTMxMjUgNzMuODg5MDYyNSA4MC41MTE1NjI1IDc0LjQ3NDA2MjUgNjkuNjAzNzUgMC41MTg0Mzc1IDQ3Mi43NDY1NjI1LTAuMTk1OTM3NSA2MTYuNTYzNzUgMCA2My44MjUgMC4wNjM3NSA4MC4wNTY4NzUtMzcuMTQgODAuMzgyMTg3NS03NC40NzQwNjI1IDEuNjg3NS0xNzAuODI3NS0xMjEuOTM1OTM3NS0zMjYuNzg3MTg3NS0yODEuMjA2ODc1LTM3MS4zMjc4MTI1eiIgcC1pZD0iMTA0OTIiIGZpbGw9IiM3RUE2RTAiLz48L3N2Zz4=;strokeColor=#000000;fillColor=#ffffff;labelBackgroundColor=#ffffff;" parent="YDz63RkTL5ti8RZhgOBa-67" vertex="1">
          <mxGeometry x="8.409999999999968" y="5" width="33.17" height="36" as="geometry" />
        </mxCell>
        <mxCell id="YDz63RkTL5ti8RZhgOBa-69" value="" style="ellipse;whiteSpace=wrap;html=1;aspect=fixed;fillColor=none;strokeWidth=2;strokeColor=#7EA6E0;" parent="YDz63RkTL5ti8RZhgOBa-67" vertex="1">
          <mxGeometry width="50" height="50" as="geometry" />
        </mxCell>
        <mxCell id="YDz63RkTL5ti8RZhgOBa-70" value="" style="group" parent="1" vertex="1" connectable="0">
          <mxGeometry x="332" y="339" width="50" height="50" as="geometry" />
        </mxCell>
        <mxCell id="YDz63RkTL5ti8RZhgOBa-71" value="" style="shape=image;verticalLabelPosition=bottom;verticalAlign=top;aspect=fixed;imageAspect=0;image=data:image/svg+xml,PHN2ZyB4bWxucz0iaHR0cDovL3d3dy53My5vcmcvMjAwMC9zdmciIHhtbG5zOnhsaW5rPSJodHRwOi8vd3d3LnczLm9yZy8xOTk5L3hsaW5rIiB0PSIxNjEyNzcxOTUzMTgxIiBjbGFzcz0iaWNvbiIgdmlld0JveD0iMTIzLjI2MjgwOTc1MzQxNzk3IDkwLjEyNSA3NzcuNDc0NjA5Mzc1IDg0My43NDk0NTA2ODM1OTM4IiB2ZXJzaW9uPSIxLjEiIHAtaWQ9IjEwNDkxIiB3aWR0aD0iNzc3LjQ3NDYwOTM3NSIgaGVpZ2h0PSI4NDMuNzQ5NDUwNjgzNTkzOCI+PGRlZnM+PHN0eWxlIHR5cGU9InRleHQvY3NzIi8+PC9kZWZzPjxwYXRoIGQ9Ik02MTkuNTEzNDM3NSA0ODcuODc4MTI1YzY5Ljk5Mzc1LTM3LjA3MzQzNzUgMTA4LjQzMTI1LTEwNi4yMjI1IDEwOC40MzEyNS0xODYuMTVDNzI4LjAxMDMxMjUgMTg1LjA1MDYyNSA2MzEuMDcxODc1IDkwLjEyNSA1MTEuOTI1OTM3NSA5MC4xMjVjLTExOS4yMDg3NSAwLTIxNi4xNDcxODc1IDk0LjkyNTYyNS0yMTYuMTQ3MTg3NSAyMTEuNjAzMTI1IDAgNzkuOTkxMjUgMzUuMDYxNTYyNSAxNDkuMDc2NTYyNSAxMDUuMDU0Mzc1IDE4Ni4xNUMyNDEuODIyODEyNSA1MzIuNDIwNjI1IDEyMy4yNjI4MTI1IDY4Ni44MjIxODc1IDEyMy4yNjI4MTI1IDg1OS4yMDc4MTI1YzAgMzUuNzc1IDIuNTMxMjUgNzMuODg5MDYyNSA4MC41MTE1NjI1IDc0LjQ3NDA2MjUgNjkuNjAzNzUgMC41MTg0Mzc1IDQ3Mi43NDY1NjI1LTAuMTk1OTM3NSA2MTYuNTYzNzUgMCA2My44MjUgMC4wNjM3NSA4MC4wNTY4NzUtMzcuMTQgODAuMzgyMTg3NS03NC40NzQwNjI1IDEuNjg3NS0xNzAuODI3NS0xMjEuOTM1OTM3NS0zMjYuNzg3MTg3NS0yODEuMjA2ODc1LTM3MS4zMjc4MTI1eiIgcC1pZD0iMTA0OTIiIGZpbGw9IiM3RUE2RTAiLz48L3N2Zz4=;strokeColor=#000000;fillColor=#ffffff;labelBackgroundColor=#ffffff;" parent="YDz63RkTL5ti8RZhgOBa-70" vertex="1">
          <mxGeometry x="8.409999999999968" y="5" width="33.17" height="36" as="geometry" />
        </mxCell>
        <mxCell id="YDz63RkTL5ti8RZhgOBa-72" value="" style="ellipse;whiteSpace=wrap;html=1;aspect=fixed;fillColor=none;strokeWidth=2;strokeColor=#7EA6E0;" parent="YDz63RkTL5ti8RZhgOBa-70" vertex="1">
          <mxGeometry width="50" height="50" as="geometry" />
        </mxCell>
        <mxCell id="hXbYB2fhWj5i4QX0Ryl8-5" value="&lt;b style=&quot;font-family: &amp;#34;cambria&amp;#34; ; font-style: italic ; text-align: left&quot;&gt;u&lt;/b&gt;&lt;span style=&quot;text-align: left ; font-weight: normal&quot;&gt;&#39;s attractiveness&lt;/span&gt;" style="text;html=1;strokeColor=none;align=center;verticalAlign=middle;whiteSpace=wrap;rounded=0;shadow=0;labelBackgroundColor=none;sketch=0;labelBorderColor=none;fontSize=15;fontStyle=1;fontFamily=Helvetica;" parent="1" vertex="1">
          <mxGeometry x="286.55000000000007" y="540" width="146.45" height="20" as="geometry" />
        </mxCell>
        <mxCell id="hXbYB2fhWj5i4QX0Ryl8-7" value="&lt;b style=&quot;font-family: &amp;#34;cambria&amp;#34; ; font-style: italic ; text-align: left&quot;&gt;u&lt;/b&gt;&lt;span style=&quot;text-align: left ; font-weight: normal&quot;&gt;&#39;s preference&lt;/span&gt;" style="text;html=1;strokeColor=none;align=center;verticalAlign=middle;whiteSpace=wrap;rounded=0;shadow=0;labelBackgroundColor=none;sketch=0;labelBorderColor=none;fontSize=15;fontStyle=1;fontFamily=Helvetica;" parent="1" vertex="1">
          <mxGeometry x="605" y="540" width="146.45" height="20" as="geometry" />
        </mxCell>
        <mxCell id="hXbYB2fhWj5i4QX0Ryl8-2" value="&lt;span style=&quot;font-size: 15px&quot;&gt;&lt;font style=&quot;font-size: 15px&quot;&gt;Gift&lt;/font&gt;&lt;/span&gt;" style="text;html=1;strokeColor=none;align=center;verticalAlign=middle;whiteSpace=wrap;rounded=0;shadow=0;labelBackgroundColor=none;sketch=0;labelBorderColor=none;fontSize=15;fontStyle=1;fontFamily=Helvetica;" parent="1" vertex="1">
          <mxGeometry x="412.99999999999994" y="401" width="40" height="20" as="geometry" />
        </mxCell>
        <mxCell id="YDz63RkTL5ti8RZhgOBa-42" value="&lt;span style=&quot;font-size: 15px;&quot;&gt;&lt;font style=&quot;font-size: 15px;&quot;&gt;Like&lt;/font&gt;&lt;/span&gt;" style="text;html=1;strokeColor=none;align=center;verticalAlign=middle;whiteSpace=wrap;rounded=0;shadow=0;labelBackgroundColor=none;sketch=0;labelBorderColor=none;fontSize=15;fontStyle=1;fontFamily=Helvetica;" parent="1" vertex="1">
          <mxGeometry x="565" y="341" width="40" height="20" as="geometry" />
        </mxCell>
        <mxCell id="YDz63RkTL5ti8RZhgOBa-45" value="&lt;span style=&quot;font-size: 15px&quot;&gt;&lt;font style=&quot;font-size: 15px&quot;&gt;Chat&lt;/font&gt;&lt;/span&gt;" style="text;html=1;strokeColor=none;align=center;verticalAlign=middle;whiteSpace=wrap;rounded=0;shadow=0;labelBackgroundColor=none;sketch=0;labelBorderColor=none;fontSize=15;fontStyle=1;fontFamily=Helvetica;" parent="1" vertex="1">
          <mxGeometry x="573" y="403" width="40" height="20" as="geometry" />
        </mxCell>
        <mxCell id="LtuHK1zD8dcOJoqcJSQe-1" value="&lt;span style=&quot;font-size: 15px;&quot;&gt;&lt;font style=&quot;font-size: 15px;&quot;&gt;Like&lt;/font&gt;&lt;/span&gt;" style="text;html=1;strokeColor=none;align=center;verticalAlign=middle;whiteSpace=wrap;rounded=0;shadow=0;labelBackgroundColor=none;sketch=0;labelBorderColor=none;fontSize=15;fontStyle=1;fontFamily=Helvetica;" vertex="1" parent="1">
          <mxGeometry x="564" y="280" width="40" height="20" as="geometry" />
        </mxCell>
        <mxCell id="LtuHK1zD8dcOJoqcJSQe-2" value="&lt;span style=&quot;font-size: 15px&quot;&gt;&lt;font style=&quot;font-size: 15px&quot;&gt;Invitation&lt;/font&gt;&lt;/span&gt;" style="text;html=1;strokeColor=none;align=center;verticalAlign=middle;whiteSpace=wrap;rounded=0;shadow=0;labelBackgroundColor=none;sketch=0;labelBorderColor=none;fontSize=15;fontStyle=1;fontFamily=Helvetica;" vertex="1" parent="1">
          <mxGeometry x="433" y="279" width="40" height="20" as="geometry" />
        </mxCell>
        <mxCell id="LtuHK1zD8dcOJoqcJSQe-3" value="&lt;span style=&quot;font-size: 15px&quot;&gt;&lt;font style=&quot;font-size: 15px&quot;&gt;Gift&lt;/font&gt;&lt;/span&gt;" style="text;html=1;strokeColor=none;align=center;verticalAlign=middle;whiteSpace=wrap;rounded=0;shadow=0;labelBackgroundColor=none;sketch=0;labelBorderColor=none;fontSize=15;fontStyle=1;fontFamily=Helvetica;" vertex="1" parent="1">
          <mxGeometry x="415.00000000000006" y="340" width="40" height="20" as="geometry" />
        </mxCell>
      </root>
    </mxGraphModel>
  </diagram>
</mxfile>
